<svg xmlns="http://www.w3.org/2000/svg" width="37.019" height="28.264" viewBox="0 0 37.019 28.264"><defs><style>.a{fill:#00a0e4;}.b{fill:#1b6db0;}</style></defs><g transform="translate(0)"><g transform="translate(0 3.328)"><g transform="translate(0 0.005)"><g transform="translate(0 2.121)"><path class="a" d="M45.306,8.084v6.3a.687.687,0,0,1-.687.687H36.277a.687.687,0,0,1-.687-.687v-6.3Z" transform="translate(-35.59 -8.084)"/></g><g transform="translate(0.001)"><path class="a" d="M35.59,6.782V6.035a.687.687,0,0,1,.687-.687h8.341a.688.688,0,0,1,.687.687v.747H35.59Z" transform="translate(-35.59 -5.348)"/></g></g><g transform="translate(3.517 0)"><path class="b" d="M40.127,6.781h2.681l-.793-1.439H40.921Z" transform="translate(-40.127 -5.342)"/></g><g transform="translate(3.516 2.126)"><rect class="b" width="2.683" height="2.388"/></g></g><g transform="translate(3.403 22.458)"><path class="b" d="M36.614,35.821a4.508,4.508,0,0,0,4.315-5.806l-1.484.45a2.955,2.955,0,1,1-5.664,0l-1.487-.44a4.51,4.51,0,0,0,4.32,5.792Z" transform="translate(-32.108 -30.015)"/></g><g transform="translate(27.425 20.02)"><path class="b" d="M5.632,35.114a4.507,4.507,0,0,0,2.519-8.243l-.868,1.285a2.954,2.954,0,1,1-4.3,1.134L1.6,28.6a4.463,4.463,0,0,0-.472,2.01A4.512,4.512,0,0,0,5.632,35.114Z" transform="translate(-1.126 -26.871)"/></g><g transform="translate(24.335 14.502)"><path class="b" d="M2.543,28.817l.452-.006a4.134,4.134,0,0,0,1.9-.689A9.427,9.427,0,0,1,7.767,27a11.408,11.408,0,0,1,2.109-.221,5.088,5.088,0,0,1,1.557.2,1.189,1.189,0,0,0,.343.05,1.333,1.333,0,0,0,1.187-.86l.052-.2a5.267,5.267,0,0,0-3.532-5.847,8.438,8.438,0,0,0-2.44-.373,6.459,6.459,0,0,0-6.576,5.34C.259,26.656.4,27.618.919,28.211A2.056,2.056,0,0,0,2.543,28.817Zm7.334-3.591a12.933,12.933,0,0,0-2.4.248,10.9,10.9,0,0,0-3.318,1.287,3.564,3.564,0,0,1-1.163.5l-.452.006c-.261,0-.41-.026-.456-.078s-.278-.4-.081-1.891A4.908,4.908,0,0,1,7.045,21.3a6.866,6.866,0,0,1,1.99.307,3.615,3.615,0,0,1,2.47,3.783A7.175,7.175,0,0,0,9.877,25.226Z" transform="translate(-0.375 -19.753)"/></g><g transform="translate(13.585 21.584)"><rect class="b" width="11.81" height="1.551"/></g><g transform="translate(2.389 12.035)"><path class="b" d="M31.889,25.434l.077,0,6.458-.177L38.381,23.7l-6.372.174c-.469-.1-3.086-.771-2.821-3.219.049-.457.095-.849.134-1.185.182-1.577.243-2.108-.165-2.552a1.425,1.425,0,0,0-1.21-.346l-.135,0c-1.082.03-9.778-.01-9.865-.011-.906.008-1.871.459-1.871,1.43a2,2,0,0,0,.6,1.343A10.491,10.491,0,0,0,15.623,23.9l1.537-.2c-.151-1.168.785-3.447,1.158-4.226l.3-.618-.576-.371a1.367,1.367,0,0,1-.34-.33,1.409,1.409,0,0,1,.258-.033c.344,0,8.8.04,9.9.01l.049,0c-.021.287-.071.706-.123,1.165-.04.34-.085.737-.135,1.2-.354,3.266,2.569,4.651,4.166,4.927Z" transform="translate(-15.595 -16.571)"/></g><g transform="translate(1.323 16.248)"><path class="b" d="M41,29.479a1.575,1.575,0,0,0,1.3-.616,2.164,2.164,0,0,0,.133-1.992c-.978-3.092-3.238-4.866-6.2-4.866a6.637,6.637,0,0,0-6.737,5.387,1.721,1.721,0,0,0,.254,1.526,1.587,1.587,0,0,0,1.237.558l9.905,0C40.914,29.477,40.952,29.479,41,29.479Zm.027-1.551H41V28.7l-.009-.776-10.015-.007A1.007,1.007,0,0,1,31,27.739a5.08,5.08,0,0,1,5.226-4.183c2.914,0,4.176,2.057,4.722,3.784a1.386,1.386,0,0,1,.093.59A.048.048,0,0,0,41.024,27.928Z" transform="translate(-29.425 -22.006)"/></g><g transform="translate(9.716 9.204)"><path class="b" d="M33.069,16.526s1.523-2.6-.021-3.248a11.438,11.438,0,0,0-4.605-.226,1.242,1.242,0,0,0-1.084,1.374c0,.975,0,1.866,0,1.866Z" transform="translate(-27.359 -12.921)"/></g><g transform="translate(22.418 7.217)"><path class="b" d="M13.7,23.255a13.783,13.783,0,0,1,2.552-5.538c2.127-2.8,1.156-7.174,1.113-7.359l-1.512.346c.009.038.848,3.855-.837,6.076A15.083,15.083,0,0,0,12.17,23.02Z" transform="translate(-12.17 -10.357)"/></g><g transform="translate(28.886 6.956)"><rect class="b" width="1.551" height="7.911" transform="matrix(-0.996, 0.085, -0.085, -0.996, 2.217, 7.883)"/></g><g transform="translate(24.621 0)"><path class="b" d="M11.119,9.832h.244a3.2,3.2,0,0,0,3.121-3.259V4.308a3.2,3.2,0,0,0-3.121-3.259h-.244A3.2,3.2,0,0,0,8,4.308H9.549A1.646,1.646,0,0,1,11.119,2.6h.244a1.646,1.646,0,0,1,1.571,1.709V6.573a1.646,1.646,0,0,1-1.571,1.708h-.244A1.646,1.646,0,0,1,9.549,6.573H8A3.2,3.2,0,0,0,11.119,9.832Z" transform="translate(-7.998 -1.049)"/></g><g transform="translate(19.804 2.124)"><path class="b" d="M13.31,8.406h5.1c.972,0,1.706-.992,1.706-2.309s-.733-2.309-1.706-2.309h-5.1c-.972,0-1.706.992-1.706,2.309S12.337,8.406,13.31,8.406Zm5.037-1.551H13.37a1.192,1.192,0,0,1-.215-.758,1.192,1.192,0,0,1,.215-.758h4.976a1.2,1.2,0,0,1,.215.758A1.194,1.194,0,0,1,18.347,6.855Z" transform="translate(-11.604 -3.788)"/></g><g transform="translate(29.878 1.77)"><path class="b" d="M6.579,9.109a2.1,2.1,0,0,0,.8-.148A1.613,1.613,0,0,0,8.322,8l.033-.16A9.727,9.727,0,0,0,8.11,4.158,1.322,1.322,0,0,0,7.275,3.4c-1-.312-2.409.506-2.817.764l.828,1.312a4.127,4.127,0,0,1,1.438-.6,9.348,9.348,0,0,1,.1,2.662c-.1.04-.578.127-1.679-.459L4.418,8.451A4.747,4.747,0,0,0,6.579,9.109Z" transform="translate(-4.418 -3.332)"/></g></g></svg>