<svg xmlns="http://www.w3.org/2000/svg" width="37.255" height="28.362" viewBox="0 0 37.255 28.362"><defs><style>.a{fill:#00a0e4;}.b{fill:#1b6db0;}</style></defs><g transform="translate(0 0)"><g transform="translate(0 0)"><path class="a" d="M24.175,2.381V21.159h-1.5v.053H10.61a2.711,2.711,0,0,0-.248-.263,4.266,4.266,0,0,0-3-1.232,4.431,4.431,0,0,0-.623.045,4.259,4.259,0,0,0-2.4,1.187,2.712,2.712,0,0,0-.248.263H.2V13.317H8.462v2.727a.255.255,0,0,0,.188.233.383.383,0,0,0,.338-.053l6.167-4.957a.233.233,0,0,0,.09-.18.21.21,0,0,0-.09-.173L8.98,5.964a.338.338,0,0,0-.338-.053.255.255,0,0,0-.188.225V8.856H.2V2.381A2.381,2.381,0,0,1,2.589,0h19.2a2.381,2.381,0,0,1,2.389,2.381Z" transform="translate(-0.05 0)"/><path class="b" d="M37.135,15.9,31.772,7.548a.751.751,0,0,0-.631-.338H24.126v1.5h6.61l.188.293H26.987a1.36,1.36,0,0,0-1.36,1.36V15.7a1.36,1.36,0,0,0,1.36,1.36h8.758v7.271a.751.751,0,0,1-.751.751h-.751a4.319,4.319,0,0,0-8.51,0H24.156V22.953h-1.5v2.126H11.56a4.259,4.259,0,0,0-1-2.073,2.711,2.711,0,0,0-.248-.263,4.266,4.266,0,0,0-3-1.232,4.431,4.431,0,0,0-.623.045,4.259,4.259,0,0,0-2.4,1.187,2.712,2.712,0,0,0-.248.263,4.236,4.236,0,0,0-.991,2.073H.751a.751.751,0,1,0,0,1.5h2.3a4.281,4.281,0,0,0,4.236,3.575,4.45,4.45,0,0,0,.63-.045,4.289,4.289,0,0,0,3.644-3.53H25.7a4.334,4.334,0,0,0,4.244,3.568,4.45,4.45,0,0,0,.63-.045,4.281,4.281,0,0,0,3.636-3.523h1.39a1.66,1.66,0,0,0,1.66-1.652V16.3A.751.751,0,0,0,37.135,15.9Zm-2.02-.346H27.468a.353.353,0,0,1-.346-.346v-4.4a.338.338,0,0,1,.338-.338H31.9L35.122,15.5l-.008.053ZM7.323,28.662a2.847,2.847,0,0,1-2.456-1.42,3,3,0,0,1,.105-3.08,2.028,2.028,0,0,1,.684-.676,3.3,3.3,0,0,1,1.667-.481,2.832,2.832,0,1,1,0,5.656Zm22.646,0a2.839,2.839,0,0,1-2.456-1.427,3,3,0,0,1,.113-3.072,1.938,1.938,0,0,1,.676-.676,3.3,3.3,0,0,1,1.667-.481,2.832,2.832,0,1,1,0,5.656Z" transform="translate(0 -1.795)"/></g></g></svg>