<svg xmlns="http://www.w3.org/2000/svg" width="33.084" height="28.917" viewBox="0 0 33.084 28.917"><defs><style>.a{fill:#1b6db0;}.b{fill:#00a0e4;}</style></defs><path class="a" d="M28.311,20.27h-4.5a2.239,2.239,0,0,0-2.239,2.239v3.452A2.239,2.239,0,0,0,23.809,28.2h4.5a2.239,2.239,0,0,0,2.239-2.239V22.509A2.239,2.239,0,0,0,28.311,20.27Zm.591,5.692a.614.614,0,0,1-.614.614H23.809a.614.614,0,0,1-.614-.614V22.509a.606.606,0,0,1,.614-.606h4.5a.606.606,0,0,1,.614.606Z" transform="translate(-4.799 -4.509)"/><path class="a" d="M31.057,17.813a4.028,4.028,0,0,1-1.617.381V31.28h-13.4V22.51a2.791,2.791,0,0,0-2.8-2.791H10.911a2.791,2.791,0,0,0-2.8,2.791v8.778H5.235V18.194a3.654,3.654,0,0,1-1.625-.4V32.1a.778.778,0,0,0,.778.778H30.256a.778.778,0,0,0,.778-.778V17.891A.241.241,0,0,0,31.057,17.813ZM14.425,31.28H9.76V22.51a1.159,1.159,0,0,1,1.151-1.159h2.333A1.159,1.159,0,0,1,14.4,22.51Z" transform="translate(-0.803 -3.957)"/><path class="b" d="M33.084,12.9a4.782,4.782,0,0,1-1.641,3.11h0l-.047.039a1.065,1.065,0,0,1-.156.124,4.914,4.914,0,0,1-.98.575h0a4.028,4.028,0,0,1-1.617.381h-.28a4.751,4.751,0,0,1-3.942-2.1,4.735,4.735,0,0,1-7.869,0,4.758,4.758,0,0,1-7.892,0,4.735,4.735,0,0,1-3.942,2.1H4.432a3.654,3.654,0,0,1-1.625-.4A4.727,4.727,0,0,1,0,12.9Z" transform="translate(0 -2.87)"/><path class="b" d="M32.785,9.089H.58L5.121.412A.778.778,0,0,1,5.828,0H27.5a.84.84,0,0,1,.708.412Z" transform="translate(-0.129 0)"/></svg>